<svg width="216" height="56" viewBox="0 0 216 56" fill="none" xmlns="http://www.w3.org/2000/svg">
<path d="M17.496 3.05C20.844 3.05 23.598 3.842 25.758 5.426C27.918 6.974 29.574 9.008 30.726 11.528H39.366V1.592H48.276V50.192H39.366V31.022H30.888C30.42 32.282 29.808 33.47 29.052 34.586C28.296 35.666 27.378 36.62 26.298 37.448C25.182 38.276 23.904 38.942 22.464 39.446C21.06 39.95 19.404 40.202 17.496 40.202C14.904 40.202 12.654 39.68 10.746 38.636C8.838 37.592 7.254 36.17 5.994 34.37C4.734 32.606 3.798 30.59 3.186 28.322C2.61 26.054 2.322 23.75 2.322 21.41C2.322 19.142 2.592 16.928 3.132 14.768C3.672 12.608 4.554 10.664 5.778 8.936C6.966 7.208 8.514 5.804 10.422 4.724C12.366 3.608 14.724 3.05 17.496 3.05ZM17.604 33.452C18.936 33.452 20.016 33.02 20.844 32.156C21.708 31.292 22.374 30.23 22.842 28.97C23.274 27.746 23.544 26.45 23.652 25.082C23.796 23.678 23.868 22.454 23.868 21.41C23.868 20.474 23.796 19.34 23.652 18.008C23.544 16.676 23.274 15.38 22.842 14.12C22.374 12.932 21.708 11.924 20.844 11.096C20.016 10.232 18.936 9.8 17.604 9.8C16.236 9.8 15.138 10.214 14.31 11.042C13.518 11.834 12.888 12.806 12.42 13.958C11.952 15.146 11.628 16.424 11.448 17.792C11.304 19.16 11.232 20.366 11.232 21.41C11.232 22.346 11.304 23.516 11.448 24.92C11.592 26.288 11.898 27.602 12.366 28.862C12.762 30.158 13.374 31.256 14.202 32.156C15.066 33.02 16.2 33.452 17.604 33.452ZM32.724 20.546C32.724 21.158 32.724 21.788 32.724 22.436C32.724 23.084 32.67 23.786 32.562 24.542H39.366V18.008H32.562C32.598 18.44 32.616 18.872 32.616 19.304C32.616 19.7 32.652 20.114 32.724 20.546ZM66.409 16.064V12.932H56.581V6.452H66.409V0.403998H75.535V6.452H85.363V12.932H75.535V16.064C75.535 18.836 76.183 21.356 77.479 23.624C78.775 25.856 80.233 27.782 81.853 29.402C83.689 31.274 85.813 32.966 88.225 34.478L83.419 40.256C81.871 39.464 80.359 38.42 78.883 37.124C77.407 35.828 76.129 34.532 75.049 33.236C73.897 31.904 72.943 30.698 72.187 29.618C71.467 28.538 71.071 27.8 70.999 27.404C70.819 27.8 70.369 28.538 69.649 29.618C68.929 30.698 68.011 31.904 66.895 33.236C65.743 34.568 64.465 35.9 63.061 37.232C61.657 38.528 60.199 39.536 58.687 40.256L53.773 34.478C56.113 32.966 58.219 31.274 60.091 29.402C61.639 27.782 63.079 25.856 64.411 23.624C65.743 21.356 66.409 18.836 66.409 16.064ZM91.357 50.192H100.105V22.004H107.827V15.524H100.105V1.592H91.357V50.192ZM130.738 16.172C130.702 17.468 130.846 18.728 131.17 19.952C131.53 21.14 131.998 22.274 132.574 23.354C133.078 24.434 133.69 25.46 134.41 26.432C135.166 27.404 135.94 28.286 136.732 29.078C138.496 30.95 140.548 32.642 142.888 34.154L138.136 40.04C136.444 39.14 134.896 38.078 133.492 36.854C132.088 35.63 130.864 34.424 129.82 33.236C128.776 32.084 127.93 31.022 127.282 30.05C126.634 29.078 126.256 28.412 126.148 28.052C126.04 28.412 125.644 29.096 124.96 30.104C124.276 31.076 123.412 32.174 122.368 33.398C121.288 34.622 120.028 35.846 118.588 37.07C117.184 38.258 115.708 39.248 114.16 40.04L109.408 34.154C111.64 32.75 113.638 31.13 115.402 29.294C116.194 28.502 116.95 27.638 117.67 26.702C118.426 25.73 119.074 24.686 119.614 23.57C120.19 22.49 120.64 21.32 120.964 20.06C121.324 18.8 121.504 17.504 121.504 16.172V10.178H112.27V3.698H139.972V10.178H130.738V16.172ZM156.064 1.592V50.192H147.1V22.274H138.028V15.74H147.1V1.592H156.064ZM174.145 16.064V12.932H164.317V6.452H174.145V0.403998H183.271V6.452H193.099V12.932H183.271V16.064C183.271 18.836 183.919 21.356 185.215 23.624C186.511 25.856 187.969 27.782 189.589 29.402C191.425 31.274 193.549 32.966 195.961 34.478L191.155 40.256C189.607 39.464 188.095 38.42 186.619 37.124C185.143 35.828 183.865 34.532 182.785 33.236C181.633 31.904 180.679 30.698 179.923 29.618C179.203 28.538 178.807 27.8 178.735 27.404C178.555 27.8 178.105 28.538 177.385 29.618C176.665 30.698 175.747 31.904 174.631 33.236C173.479 34.568 172.201 35.9 170.797 37.232C169.393 38.528 167.935 39.536 166.423 40.256L161.509 34.478C163.849 32.966 165.955 31.274 167.827 29.402C169.375 27.782 170.815 25.856 172.147 23.624C173.479 21.356 174.145 18.836 174.145 16.064ZM199.093 50.192H207.841V22.004H215.563V15.524H207.841V1.592H199.093V50.192Z" fill="#3C77CF"/>
</svg>
