<svg width="133" height="131" viewBox="0 0 133 131" fill="none" xmlns="http://www.w3.org/2000/svg">
<rect x="3.94189" y="1.99658" width="126.116" height="126.116" rx="27.1865" fill="#3C77CF" stroke="white" stroke-width="3.88378"/>
<path d="M34.4317 87.8375H36.8341V88.4174C36.8341 89.0801 36.7237 89.7222 36.5028 90.3435C36.2957 90.9648 35.9781 91.5447 35.5501 92.0831C35.1221 92.6078 34.5974 93.0841 33.9761 93.5121C33.3686 93.9263 32.6645 94.2784 31.8637 94.5684C31.0629 94.8583 30.1723 95.0654 29.192 95.1897L28.1772 93.0565C29.0333 92.9461 29.7926 92.7804 30.4554 92.5595C31.1319 92.3248 31.7187 92.0555 32.2157 91.7518C32.7128 91.4342 33.127 91.0959 33.4584 90.737C33.7897 90.378 34.0313 89.9983 34.1832 89.5979C34.3489 89.1975 34.4317 88.804 34.4317 88.4174V87.8375ZM35.2394 87.8375H37.6211V88.4174C37.6211 88.804 37.6971 89.1975 37.8489 89.5979C38.0146 89.9983 38.2631 90.378 38.5945 90.737C38.9259 91.0959 39.3401 91.4342 39.8371 91.7518C40.348 92.0555 40.9348 92.3248 41.5975 92.5595C42.2602 92.7804 43.0196 92.9461 43.8756 93.0565L42.8608 95.1897C41.8805 95.0654 40.99 94.8583 40.1892 94.5684C39.3884 94.2784 38.6773 93.9263 38.056 93.5121C37.4485 93.0841 36.9308 92.6078 36.5028 92.0831C36.0886 91.5447 35.771 90.9648 35.5501 90.3435C35.343 89.7222 35.2394 89.0801 35.2394 88.4174V87.8375ZM34.5767 97.882H37.3312V104.903H34.5767V97.882ZM27.3488 96.2873H44.704V98.5033H27.3488V96.2873ZM28.8814 86.6985H43.1093V88.873H28.8814V86.6985ZM50.5841 90.6955H52.738V91.6896C52.738 92.6975 52.6275 93.6916 52.4066 94.6719C52.1995 95.6522 51.8751 96.5773 51.4332 97.4471C51.0052 98.3169 50.4668 99.0901 49.8178 99.7666C49.1689 100.443 48.4026 100.975 47.519 101.361L46.0486 99.2282C46.8218 98.883 47.4914 98.4343 48.0575 97.882C48.6374 97.3159 49.1137 96.6946 49.4865 96.0181C49.8593 95.3277 50.1354 94.6167 50.3149 93.8849C50.4944 93.1394 50.5841 92.4076 50.5841 91.6896V90.6955ZM51.2054 90.6955H53.3179V91.6896C53.3179 92.3662 53.4076 93.0565 53.5871 93.7607C53.7666 94.4648 54.0289 95.1413 54.3741 95.7903C54.7331 96.4392 55.1818 97.0398 55.7203 97.5921C56.2725 98.1305 56.9215 98.5793 57.667 98.9382L56.1966 101.009C55.3544 100.636 54.6226 100.119 54.0013 99.456C53.38 98.7933 52.8623 98.0477 52.4481 97.2193C52.0338 96.3771 51.7232 95.4865 51.5161 94.5477C51.309 93.595 51.2054 92.6423 51.2054 91.6896V90.6955ZM46.6906 88.8316H57.1493V91.0062H46.6906V88.8316ZM50.5841 86.16H53.3386V89.9707H50.5841V86.16ZM58.6404 85.7251H61.4156V104.903H58.6404V85.7251ZM60.815 93.1601H64.1908V95.4382H60.815V93.1601ZM80.021 88.521H84.743V90.7163H80.021V88.521ZM83.521 85.7251H86.2962V95.4589H83.521V85.7251ZM73.6215 96.2459H86.2962V101.423H76.376V103.826H73.6423V99.4353H83.5625V98.3791H73.6215V96.2459ZM73.6423 102.542H86.8347V104.696H73.6423V102.542ZM74.6156 86.3257H76.8523V87.7133C76.8523 88.9007 76.659 90.0259 76.2725 91.089C75.8997 92.1522 75.3198 93.0772 74.5328 93.8642C73.7458 94.6374 72.7379 95.2173 71.5091 95.6039L70.1008 93.45C71.1639 93.1186 72.0269 92.663 72.6896 92.0831C73.3523 91.4894 73.8355 90.8129 74.1393 90.0535C74.4569 89.2942 74.6156 88.5141 74.6156 87.7133V86.3257ZM75.1748 86.3257H77.3908V87.7133C77.3908 88.2655 77.4736 88.8178 77.6393 89.3701C77.8188 89.9224 78.0812 90.4401 78.4263 90.9234C78.7715 91.4066 79.2133 91.8346 79.7518 92.2074C80.3041 92.5802 80.953 92.8839 81.6985 93.1186L80.2902 95.2311C79.1305 94.8583 78.1709 94.2991 77.4115 93.5536C76.6521 92.808 76.0861 91.9313 75.7133 90.9234C75.3543 89.9155 75.1748 88.8454 75.1748 87.7133V86.3257ZM99.6941 90.3435H103.339V92.5802H99.6941V90.3435ZM102.573 85.7251H105.348V97.1157H102.573V85.7251ZM98.845 97.5299C100.198 97.5299 101.365 97.6749 102.345 97.9648C103.325 98.2548 104.078 98.6759 104.602 99.2282C105.141 99.7804 105.41 100.443 105.41 101.216C105.41 102.404 104.823 103.315 103.65 103.95C102.476 104.599 100.875 104.923 98.845 104.923C96.8154 104.923 95.2138 104.599 94.0402 103.95C92.8667 103.315 92.2799 102.404 92.2799 101.216C92.2799 100.443 92.5422 99.7804 93.0669 99.2282C93.6053 98.6759 94.3647 98.2548 95.345 97.9648C96.3253 97.6749 97.4919 97.5299 98.845 97.5299ZM98.845 99.6217C98.0166 99.6217 97.3194 99.6838 96.7533 99.8081C96.1872 99.9185 95.7523 100.091 95.4485 100.326C95.1586 100.561 95.0136 100.857 95.0136 101.216C95.0136 101.575 95.1586 101.879 95.4485 102.128C95.7523 102.362 96.1872 102.542 96.7533 102.666C97.3194 102.777 98.0166 102.832 98.845 102.832C99.6734 102.832 100.371 102.777 100.937 102.666C101.503 102.542 101.931 102.362 102.221 102.128C102.511 101.879 102.656 101.575 102.656 101.216C102.656 100.857 102.511 100.561 102.221 100.326C101.931 100.091 101.503 99.9185 100.937 99.8081C100.371 99.6838 99.6734 99.6217 98.845 99.6217ZM93.7296 87.6304H95.9663V88.8523C95.9663 90.0673 95.773 91.2271 95.3864 92.3317C94.9998 93.4362 94.4061 94.4096 93.6053 95.2518C92.8183 96.0802 91.8104 96.7015 90.5816 97.1157L89.194 94.9411C89.981 94.6788 90.6576 94.3267 91.2236 93.8849C91.8035 93.4431 92.273 92.953 92.6319 92.4145C93.0047 91.8622 93.2809 91.2823 93.4604 90.6748C93.6398 90.0673 93.7296 89.4598 93.7296 88.8523V87.6304ZM94.3095 87.6304H96.5048V88.8316C96.5048 89.591 96.6566 90.3366 96.9604 91.0683C97.2641 91.8001 97.7336 92.4628 98.3687 93.0565C99.0176 93.6502 99.846 94.1196 100.854 94.4648L99.5077 96.6187C98.3204 96.2183 97.3401 95.6315 96.5669 94.8583C95.8075 94.0713 95.2414 93.1601 94.8686 92.1246C94.4959 91.0752 94.3095 89.9776 94.3095 88.8316V87.6304ZM89.9396 86.8849H100.253V89.0594H89.9396V86.8849Z" fill="white"/>
<path d="M75.7164 80.0593L75.2388 76.2185C74.9801 76.1185 74.7363 75.9985 74.5075 75.8585C74.2786 75.7184 74.0547 75.5684 73.8358 75.4084L70.2836 76.9087L67 71.2076L70.0746 68.8671C70.0547 68.7271 70.0448 68.5921 70.0448 68.462V67.6519C70.0448 67.5219 70.0547 67.3868 70.0746 67.2468L67 64.9064L70.2836 59.2053L73.8358 60.7056C74.0547 60.5455 74.2836 60.3955 74.5224 60.2555C74.7612 60.1155 75 59.9954 75.2388 59.8954L75.7164 56.0547H82.2836L82.7612 59.8954C83.0199 59.9954 83.2637 60.1155 83.4925 60.2555C83.7214 60.3955 83.9453 60.5455 84.1642 60.7056L87.7164 59.2053L91 64.9064L87.9254 67.2468C87.9453 67.3868 87.9552 67.5219 87.9552 67.6519V68.462C87.9552 68.5921 87.9353 68.7271 87.8955 68.8671L90.9701 71.2076L87.6866 76.9087L84.1642 75.4084C83.9453 75.5684 83.7164 75.7184 83.4776 75.8585C83.2388 75.9985 83 76.1185 82.7612 76.2185L82.2836 80.0593H75.7164ZM79.0597 72.2578C80.2139 72.2578 81.199 71.8477 82.0149 71.0275C82.8308 70.2074 83.2388 69.2172 83.2388 68.057C83.2388 66.8968 82.8308 65.9066 82.0149 65.0864C81.199 64.2662 80.2139 63.8562 79.0597 63.8562C77.8856 63.8562 76.8955 64.2662 76.0896 65.0864C75.2836 65.9066 74.8806 66.8968 74.8806 68.057C74.8806 69.2172 75.2836 70.2074 76.0896 71.0275C76.8955 71.8477 77.8856 72.2578 79.0597 72.2578Z" fill="white"/>
<path d="M43 72.0547V22.0547H62.3846C67 22.0547 70.9231 23.6751 74.1538 26.9158C77.3846 30.1565 79 34.0917 79 38.7214C79 43.351 77.3846 47.2862 74.1538 50.5269C70.9231 53.7676 67 55.388 62.3846 55.388H54.0769V72.0547H43ZM54.0769 44.2769H62.9385C64.4615 44.2769 65.7654 43.7329 66.85 42.645C67.9346 41.557 68.4769 40.2491 68.4769 38.7214C68.4769 37.1936 67.9346 35.8857 66.85 34.7977C65.7654 33.7098 64.4615 33.1658 62.9385 33.1658H54.0769V44.2769Z" fill="white"/>
</svg>
