<svg width="133" height="131" viewBox="0 0 133 131" fill="none" xmlns="http://www.w3.org/2000/svg">
<rect x="2.94189" y="1.99658" width="126.116" height="126.116" rx="27.1865" fill="#3C77CF" stroke="white" stroke-width="3.88378"/>
<path d="M32.5325 89.7439H34.7071V91.8978C34.7071 92.9609 34.5897 94.024 34.355 95.0871C34.1341 96.1503 33.8027 97.1513 33.3609 98.0901C32.9191 99.0152 32.3599 99.8436 31.6834 100.575C31.0207 101.307 30.2475 101.88 29.3638 102.294L27.8106 100.12C28.6114 99.747 29.3017 99.2568 29.8816 98.6493C30.4753 98.0418 30.9654 97.3653 31.352 96.6197C31.7524 95.8741 32.0493 95.101 32.2426 94.3002C32.4359 93.4856 32.5325 92.6848 32.5325 91.8978V89.7439ZM33.1124 89.7439H35.287V91.8978C35.287 92.6157 35.3836 93.3544 35.5769 94.1138C35.7702 94.8731 36.0532 95.6049 36.426 96.3091C36.8126 97.0132 37.2959 97.6552 37.8758 98.2351C38.4694 98.8012 39.1598 99.2637 39.9468 99.6227L38.4142 101.818C37.5306 101.404 36.7574 100.852 36.0947 100.161C35.4457 99.457 34.8935 98.6631 34.4378 97.7795C33.996 96.882 33.6647 95.9363 33.4438 94.9422C33.2228 93.9343 33.1124 92.9195 33.1124 91.8978V89.7439ZM28.5561 88.5427H39.0977V90.8208H28.5561V88.5427ZM40.4852 86.7202H43.2604V105.898H40.4852V86.7202ZM42.6598 94.0309H46.0356V96.2883H42.6598V94.0309ZM47.318 95.7292H64.6525V97.9037H47.318V95.7292ZM54.608 92.8504H57.3625V96.5783H54.608V92.8504ZM49.4097 91.9806H62.685V94.1345H49.4097V91.9806ZM49.4097 87.5279H62.5815V89.7025H52.1435V93.3475H49.4097V87.5279ZM55.9128 98.8564C57.9838 98.8564 59.613 99.1671 60.8004 99.7884C61.9878 100.396 62.5815 101.266 62.5815 102.398C62.5815 103.516 61.9878 104.379 60.8004 104.987C59.613 105.608 57.9838 105.919 55.9128 105.919C53.8417 105.919 52.2125 105.608 51.0251 104.987C49.8516 104.379 49.2648 103.516 49.2648 102.398C49.2648 101.266 49.8516 100.396 51.0251 99.7884C52.2125 99.1671 53.8417 98.8564 55.9128 98.8564ZM55.9128 100.948C55.0567 100.948 54.3388 101.003 53.7589 101.114C53.1928 101.21 52.7648 101.369 52.4749 101.59C52.1849 101.797 52.0399 102.06 52.0399 102.377C52.0399 102.709 52.1849 102.985 52.4749 103.206C52.7648 103.413 53.1928 103.571 53.7589 103.682C54.3388 103.779 55.0567 103.827 55.9128 103.827C56.7688 103.827 57.4798 103.779 58.0459 103.682C58.6258 103.571 59.0607 103.413 59.3507 103.206C59.6406 102.985 59.7856 102.709 59.7856 102.377C59.7856 102.06 59.6406 101.797 59.3507 101.59C59.0607 101.369 58.6258 101.21 58.0459 101.114C57.4798 101.003 56.7688 100.948 55.9128 100.948ZM79.6244 86.6995H82.3996V96.3298H79.6244V86.6995ZM73.2456 87.4243H76.2486C76.2486 89.1226 75.9173 90.5999 75.2545 91.8563C74.6056 93.099 73.6322 94.1276 72.3344 94.9422C71.0365 95.743 69.4211 96.3574 67.4882 96.7854L66.5562 94.5694C68.1716 94.2518 69.4626 93.8169 70.429 93.2646C71.4093 92.6986 72.1204 92.0496 72.5622 91.3179C73.0178 90.5723 73.2456 89.7784 73.2456 88.9362V87.4243ZM67.6746 87.4243H74.3847V89.6196H67.6746V87.4243ZM75.5031 89.1019H79.9765V91.1936H75.5031V89.1019ZM75.3788 92.8297H79.8936V94.9008H75.3788V92.8297ZM69.7249 97.0339H82.3996V102.336H72.5001V104.697H69.7456V100.285H79.6244V99.1878H69.7249V97.0339ZM69.7456 103.537H82.7724V105.712H69.7456V103.537ZM99.2354 86.6995H101.866V105.877H99.2354V86.6995ZM92.9188 93.2646H96.1081V95.5014H92.9188V93.2646ZM95.3626 87.0101H97.9307V105.007H95.3626V87.0101ZM88.7974 89.8267H90.8685V91.7942C90.8685 92.8711 90.7856 93.9343 90.6199 94.9836C90.4681 96.0329 90.2264 97.027 89.8951 97.9659C89.5637 98.8909 89.1288 99.7262 88.5903 100.472C88.0519 101.217 87.4029 101.832 86.6436 102.315L85.0074 100.285C85.9463 99.6917 86.6919 98.9462 87.2442 98.0487C87.7964 97.1375 88.1899 96.1434 88.4246 95.0664C88.6732 93.9757 88.7974 92.885 88.7974 91.7942V89.8267ZM89.4187 89.8267H91.469V91.7942C91.469 92.8573 91.5864 93.9067 91.8211 94.9422C92.0558 95.9777 92.4424 96.9235 92.9809 97.7795C93.5194 98.6217 94.2511 99.312 95.1762 99.8505L93.5815 101.839C92.5598 101.231 91.7452 100.41 91.1377 99.3742C90.5302 98.3387 90.0884 97.172 89.8122 95.8741C89.5499 94.5625 89.4187 93.2025 89.4187 91.7942V89.8267ZM85.7116 88.6255H94.2649V90.8415H85.7116V88.6255Z" fill="white"/>
<mask id="mask0_341_1359" style="mask-type:alpha" maskUnits="userSpaceOnUse" x="31" y="13" width="69" height="69">
<rect x="31.5698" y="13.0547" width="68" height="67.9999" fill="#D9D9D9"/>
</mask>
<g mask="url(#mask0_341_1359)">
<path d="M87.3155 71.8359L89.2988 69.8526L83.9863 64.5401V56.6068H81.153V65.6734L87.3155 71.8359ZM82.6405 79.2734C78.6738 79.2734 75.3092 77.904 72.5467 75.1651C69.7842 72.4262 68.403 69.0734 68.403 65.1067C68.403 61.1401 69.7842 57.7873 72.5467 55.0484C75.3092 52.3095 78.6738 50.9401 82.6405 50.9401C86.5599 50.9401 89.8891 52.3213 92.628 55.0838C95.3669 57.8463 96.7363 61.1873 96.7363 65.1067C96.7363 69.0262 95.3669 72.3672 92.628 75.1297C89.8891 77.8922 86.5599 79.2734 82.6405 79.2734ZM42.903 73.6067C41.3447 73.6067 40.0106 73.0519 38.9009 71.9422C37.7912 70.8324 37.2363 69.4984 37.2363 67.9401V33.9401C37.2363 32.3818 37.7912 31.0477 38.9009 29.938C40.0106 28.8283 41.3447 28.2734 42.903 28.2734H88.2363C89.7947 28.2734 91.1287 28.8283 92.2384 29.938C93.3481 31.0477 93.903 32.3818 93.903 33.9401V49.0276C93.053 48.4137 92.1558 47.8706 91.2113 47.3984C90.2669 46.9262 89.2752 46.5248 88.2363 46.1943V39.6068H42.903V50.9401H68.403C66.5613 52.7345 65.1092 54.8477 64.0467 57.2797C62.9842 59.7116 62.453 62.3206 62.453 65.1067C62.453 66.6179 62.6183 68.0935 62.9488 69.5338C63.2794 70.9741 63.7516 72.3317 64.3655 73.6067H42.903Z" fill="white"/>
</g>
</svg>
