<svg width="78" height="77" viewBox="0 0 78 77" fill="none" xmlns="http://www.w3.org/2000/svg">
<circle cx="38.5625" cy="38.5" r="36.575" fill="#3C77CF" stroke="#3C77CF" stroke-width="3.85"/>
<path d="M36.8337 26.3075C37.7846 29.0141 38.6136 31.4159 39.3208 33.5128C40.0523 35.6098 40.7716 37.6092 41.4787 39.5111C42.1614 41.4618 42.8563 43.449 43.5635 45.4728C44.2706 47.4967 45.0874 49.8009 46.014 52.3855H42.3565C41.5031 52.3855 40.8203 52.3611 40.3083 52.3124C39.7962 52.2636 39.3817 52.1295 39.0647 51.91C38.699 51.7394 38.3942 51.459 38.1504 51.0688C37.9309 50.6543 37.6871 50.0691 37.4189 49.3132L36.0656 45.2168H26.6292L25.0931 50.1179C24.898 50.7518 24.6786 51.2273 24.4347 51.5443C24.2153 51.8369 23.9593 52.0442 23.6667 52.1661C23.3984 52.3124 23.0571 52.3855 22.6426 52.3855C22.228 52.3855 21.7282 52.3855 21.143 52.3855H16.9369C18.5949 47.8746 20.1433 43.449 21.5819 39.1088C23.0449 34.7442 24.5688 30.4527 26.1538 26.2344C26.3488 25.7711 26.5073 25.3688 26.6292 25.0274C26.7511 24.6617 26.9096 24.3569 27.1047 24.113C27.3242 23.918 27.6168 23.7473 27.9825 23.601C28.3726 23.4303 28.8847 23.3084 29.5187 23.2352H32.9933C33.676 23.2352 34.2124 23.284 34.6026 23.3815C34.9927 23.4547 35.3219 23.601 35.5901 23.8204C35.8583 24.0643 36.0778 24.3935 36.2485 24.808C36.4191 25.1981 36.6142 25.698 36.8337 26.3075ZM34.6026 40.0232L31.4571 30.7697L28.2751 40.0232H34.6026ZM49.0586 23.1621H57.1416V52.3855H49.0586V23.1621Z" fill="white"/>
</svg>
