<svg width="132" height="131" viewBox="0 0 132 131" fill="none" xmlns="http://www.w3.org/2000/svg">
<rect x="2.94189" y="1.99658" width="126.116" height="126.116" rx="27.1865" fill="#3C77CF" stroke="white" stroke-width="3.88378"/>
<path d="M32.8639 87.7439H35.0592V89.8978C35.0592 91.0023 34.9418 92.0861 34.7071 93.1493C34.4862 94.2124 34.1479 95.2134 33.6923 96.1523C33.2505 97.0773 32.6913 97.8988 32.0147 98.6168C31.3382 99.3209 30.5512 99.8801 29.6538 100.294L28.0798 98.1197C28.8806 97.747 29.5778 97.2637 30.1715 96.67C30.779 96.0763 31.2761 95.4136 31.6627 94.6818C32.0631 93.9363 32.3599 93.1562 32.5532 92.3416C32.7603 91.5132 32.8639 90.6986 32.8639 89.8978V87.7439ZM33.4645 87.7439H35.639V89.8978C35.639 90.6571 35.7357 91.4303 35.929 92.2173C36.1361 92.9905 36.4329 93.7292 36.8195 94.4333C37.2061 95.1237 37.6963 95.745 38.29 96.2972C38.8836 96.8495 39.5878 97.2913 40.4024 97.6227L38.8906 99.818C37.9793 99.4176 37.1854 98.8791 36.5089 98.2026C35.8323 97.526 35.2663 96.746 34.8106 95.8623C34.355 94.9787 34.0167 94.0329 33.7958 93.025C33.5749 92.0033 33.4645 90.9609 33.4645 89.8978V87.7439ZM28.8461 86.5427H39.6154V88.8208H28.8461V86.5427ZM41.3965 84.7202H44.151V103.898H41.3965V84.7202ZM49.3269 93.2528H62.8093V95.4688H49.3269V93.2528ZM47.2973 99.4866H64.6732V101.744H47.2973V99.4866ZM54.5873 94.2676H57.3211V100.211H54.5873V94.2676ZM49.3269 86.0249H62.6643V88.2202H52.0607V94.2055H49.3269V86.0249ZM73.3285 85.7971H76.2279C76.2279 87.4816 75.8827 88.9865 75.1924 90.312C74.5159 91.6374 73.5287 92.7696 72.2308 93.7085C70.9468 94.6335 69.3659 95.3584 67.4882 95.883L66.432 93.7292C67.9645 93.315 69.2417 92.7834 70.2634 92.1345C71.2851 91.4717 72.0513 90.7193 72.5622 89.8771C73.0731 89.021 73.3285 88.096 73.3285 87.1019V85.7971ZM67.4675 85.7971H75.2545V87.9924H67.4675V85.7971ZM79.6244 84.6995H82.3996V95.4274H79.6244V84.6995ZM76.3315 89.2557H80.0179V91.4925H76.3315V89.2557ZM69.7456 96.2144H82.3996V103.691H69.7456V96.2144ZM79.6865 98.3683H72.4586V101.516H79.6865V98.3683ZM88.8388 85.7971H90.9927V88.0131C90.9927 89.1039 90.8408 90.167 90.5371 91.2025C90.2333 92.238 89.757 93.1631 89.1081 93.9777C88.473 94.7923 87.6307 95.4274 86.5814 95.883L85.1317 93.7499C86.0153 93.3495 86.7264 92.8386 87.2649 92.2173C87.8171 91.596 88.2175 90.9195 88.4661 90.1877C88.7146 89.4559 88.8388 88.7311 88.8388 88.0131V85.7971ZM89.3566 85.7971H91.5105V88.0131C91.5105 88.7173 91.6278 89.4076 91.8625 90.0842C92.0973 90.7469 92.4769 91.3544 93.0016 91.9067C93.5263 92.4589 94.2097 92.9146 95.0519 93.2735L93.6022 95.3653C92.6081 94.9511 91.7935 94.3712 91.1584 93.6256C90.5371 92.8662 90.0815 92.0102 89.7915 91.0575C89.5016 90.0911 89.3566 89.0763 89.3566 88.0131V85.7971ZM99.1111 84.7202H101.741V96.3594H99.1111V84.7202ZM96.833 89.38H99.8774V91.596H96.833V89.38ZM95.0726 85.0101H97.6407V96.2558H95.0726V85.0101ZM88.5489 97.1878H101.741V103.898H98.9869V99.3831H88.5489V97.1878Z" fill="white"/>
<path d="M70.2388 74.0906L52.6194 68.253L38.9644 73.2566C37.9855 73.6273 37.0801 73.523 36.248 72.9439C35.416 72.3648 35 71.5888 35 70.6158V31.6991C35 31.0968 35.1835 30.564 35.5506 30.1007C35.9177 29.6374 36.4193 29.2899 37.0556 29.0583L52.6194 24.0547L70.2388 29.8922L83.8939 24.8886C84.8727 24.518 85.7782 24.6222 86.6102 25.2013C87.4422 25.7805 87.8583 26.5565 87.8583 27.5294V66.4462C87.8583 67.0485 87.6747 67.5813 87.3077 68.0446C86.9406 68.5079 86.4389 68.8553 85.8027 69.087L70.2388 74.0906ZM67.3023 67.2801V34.7568L55.556 30.8651V63.3884L67.3023 67.2801ZM73.1754 67.2801L81.9851 64.5004V31.5601L73.1754 34.7568V67.2801ZM40.8731 66.5852L49.6828 63.3884V30.8651L40.8731 33.6449V66.5852Z" fill="white"/>
<path d="M92.4941 80.1521L93.5954 81.2571L94.6968 80.1521L97.1014 77.7392L98.1953 76.6416L97.1014 75.544L87.197 65.6059C87.6268 64.9018 87.9855 64.1435 88.2749 63.3346C88.7394 62.0361 88.9669 60.6659 88.9669 59.2347C88.9669 55.7027 87.7304 52.6551 85.2714 50.1877L84.17 51.2853L85.2714 50.1877C82.8121 47.72 79.7723 46.4773 76.2475 46.4773C72.7228 46.4773 69.683 47.72 67.2237 50.1877C64.7646 52.6551 63.5281 55.7027 63.5281 59.2347C63.5281 62.7667 64.7646 65.8143 67.2237 68.2818C69.683 70.7494 72.7228 71.9921 76.2475 71.9921C77.6756 71.9921 79.0429 71.7635 80.3385 71.2968C81.1422 71.0074 81.8956 70.6489 82.5954 70.2197L92.4941 80.1521ZM80.6211 63.6306C79.4127 64.8431 77.9852 65.4354 76.2475 65.4354C74.5099 65.4354 73.0824 64.8431 71.8739 63.6306C70.6653 62.4179 70.0731 60.983 70.0731 59.2347C70.0731 57.4864 70.6653 56.0515 71.8739 54.8388C73.0824 53.6263 74.5099 53.034 76.2475 53.034C77.9852 53.034 79.4127 53.6263 80.6211 54.8388C81.8297 56.0515 82.4219 57.4864 82.4219 59.2347C82.4219 60.983 81.8297 62.4179 80.6211 63.6306Z" fill="white" stroke="#3C77CF" stroke-width="3.10976"/>
</svg>
