<svg width="133" height="131" viewBox="0 0 133 131" fill="none" xmlns="http://www.w3.org/2000/svg">
<rect x="2.94189" y="1.99658" width="126.116" height="126.116" rx="27.1865" fill="#3C77CF" stroke="white" stroke-width="3.88378"/>
<path d="M26.7195 87.3386H30.3645V89.5753H26.7195V87.3386ZM29.5982 82.7202H32.3734V94.1108H29.5982V82.7202ZM25.8704 94.525C27.2234 94.525 28.3901 94.67 29.3704 94.96C30.3507 95.2499 31.1031 95.671 31.6278 96.2233C32.1663 96.7756 32.4355 97.4383 32.4355 98.2115C32.4355 99.3989 31.8487 100.31 30.6751 100.945C29.5015 101.594 27.9 101.919 25.8704 101.919C23.8407 101.919 22.2392 101.594 21.0656 100.945C19.892 100.31 19.3052 99.3989 19.3052 98.2115C19.3052 97.4383 19.5675 96.7756 20.0922 96.2233C20.6307 95.671 21.39 95.2499 22.3703 94.96C23.3506 94.67 24.5173 94.525 25.8704 94.525ZM25.8704 96.6168C25.0419 96.6168 24.3447 96.6789 23.7786 96.8032C23.2125 96.9136 22.7776 97.0862 22.4739 97.3209C22.1839 97.5556 22.039 97.8525 22.039 98.2115C22.039 98.5705 22.1839 98.8742 22.4739 99.1227C22.7776 99.3574 23.2125 99.5369 23.7786 99.6612C24.3447 99.7716 25.0419 99.8269 25.8704 99.8269C26.6988 99.8269 27.396 99.7716 27.9621 99.6612C28.5282 99.5369 28.9562 99.3574 29.2461 99.1227C29.5361 98.8742 29.681 98.5705 29.681 98.2115C29.681 97.8525 29.5361 97.5556 29.2461 97.3209C28.9562 97.0862 28.5282 96.9136 27.9621 96.8032C27.396 96.6789 26.6988 96.6168 25.8704 96.6168ZM20.7549 84.6255H22.9916V85.8474C22.9916 87.0625 22.7983 88.2222 22.4117 89.3268C22.0251 90.4313 21.4315 91.4047 20.6307 92.2469C19.8437 93.0753 18.8358 93.6966 17.607 94.1108L16.2194 91.9363C17.0064 91.6739 17.6829 91.3219 18.249 90.88C18.8289 90.4382 19.2983 89.9481 19.6573 89.4096C20.0301 88.8573 20.3062 88.2775 20.4857 87.67C20.6652 87.0625 20.7549 86.455 20.7549 85.8474V84.6255ZM21.3348 84.6255H23.5301V85.8267C23.5301 86.5861 23.682 87.3317 23.9857 88.0634C24.2895 88.7952 24.7589 89.4579 25.394 90.0516C26.0429 90.6453 26.8713 91.1148 27.8792 91.4599L26.5331 93.6138C25.3457 93.2134 24.3654 92.6266 23.5922 91.8534C22.8328 91.0664 22.2668 90.1552 21.894 89.1197C21.5212 88.0704 21.3348 86.9727 21.3348 85.8267V84.6255ZM16.9649 83.88H27.2786V86.0546H16.9649V83.88ZM48.5879 82.6995H51.3424V101.877H48.5879V82.6995ZM42.934 84.6877H45.647C45.647 86.1512 45.5021 87.5526 45.2121 88.8919C44.936 90.2173 44.4665 91.4668 43.8038 92.6404C43.1549 93.814 42.2575 94.9047 41.1115 95.9126C39.9793 96.9067 38.5641 97.818 36.8659 98.6464L35.4162 96.4718C37.2663 95.5744 38.7367 94.5872 39.8274 93.5102C40.932 92.4195 41.7259 91.1907 42.2091 89.8238C42.6924 88.4431 42.934 86.8968 42.934 85.1847V84.6877ZM36.4517 84.6877H44.218V86.883H36.4517V84.6877ZM59.3142 91.6463H62.0686V95.9748H59.3142V91.6463ZM67.9297 82.6995H70.7048V97.1345H67.9297V82.6995ZM56.8911 99.3505H71.1397V101.567H56.8911V99.3505ZM56.8911 95.7055H59.6455V99.9097H56.8911V95.7055ZM54.613 92.1434L54.2816 89.9481C55.4552 89.9481 56.7392 89.9343 58.1337 89.9067C59.5282 89.879 60.9503 89.8238 62.4 89.741C63.8635 89.6443 65.2718 89.5063 66.6249 89.3268L66.7906 91.2735C65.4099 91.5083 64.0016 91.6877 62.5657 91.812C61.1298 91.9363 59.7353 92.0191 58.3822 92.0605C57.0292 92.1019 55.7727 92.1296 54.613 92.1434ZM64.2432 92.9511H68.551V95.0635H64.2432V92.9511ZM56.042 83.6522H64.1604V85.8474H56.042V83.6522ZM62.4414 83.6522H65.1752V84.3356C65.1752 84.8879 65.1545 85.6749 65.1131 86.6966C65.0716 87.7183 64.9267 88.9402 64.6781 90.3623L61.9651 90.1966C62.2136 88.7745 62.3517 87.5802 62.3793 86.6137C62.4207 85.6334 62.4414 84.8741 62.4414 84.3356V83.6522ZM79.1208 84.1078H87.3221V86.3031H79.1208V84.1078ZM81.4818 88.5812H84.1948V93.3653H81.4818V88.5812ZM86.2451 84.1078H88.9582V85.309C88.9582 85.9855 88.9375 86.7932 88.896 87.7321C88.8684 88.6571 88.7373 89.7272 88.5025 90.9422L85.8309 90.6315C86.038 89.4579 86.1554 88.4431 86.183 87.5871C86.2244 86.7311 86.2451 85.9717 86.2451 85.309V84.1078ZM90.8014 82.6995H93.5766V97.0517H90.8014V82.6995ZM92.4789 88.5605H95.8754V90.8179H92.4789V88.5605ZM80.7776 99.3505H94.1979V101.567H80.7776V99.3505ZM80.7776 95.7884H83.5528V100.034H80.7776V95.7884ZM78.2303 94.5043L77.9817 92.3091C79.0863 92.3091 80.3082 92.3021 81.6474 92.2883C82.9867 92.2607 84.3536 92.2055 85.7481 92.1227C87.1426 92.026 88.4818 91.8879 89.7659 91.7085L89.9523 93.6759C88.6268 93.9106 87.2737 94.0901 85.893 94.2144C84.5124 94.3248 83.1662 94.4008 81.8545 94.4422C80.5429 94.4698 79.3348 94.4905 78.2303 94.5043ZM110.516 82.6788H113.291V101.919H110.516V82.6788ZM98.359 95.2085H100.057C101.189 95.2085 102.259 95.1947 103.267 95.1671C104.275 95.1256 105.262 95.0635 106.229 94.9807C107.195 94.884 108.183 94.746 109.19 94.5665L109.48 96.7825C107.934 97.0586 106.408 97.245 104.903 97.3416C103.412 97.4245 101.797 97.4659 100.057 97.4659H98.359V95.2085ZM98.3176 84.3149H107.368V91.7499H101.155V96.0576H98.359V89.5753H104.572V86.5309H98.3176V84.3149Z" fill="white"/>
<path d="M37.6441 77.0546C36.7896 77.0546 36.0734 76.7647 35.4954 76.185C34.9174 75.6053 34.6284 74.887 34.6284 74.03V49.8338L40.9613 31.6866C41.2629 30.7793 41.8032 30.0484 42.5822 29.4939C43.3613 28.9394 44.2283 28.6621 45.1832 28.6621H78.3555C79.3105 28.6621 80.1775 28.9394 80.9565 29.4939C81.7356 30.0484 82.2759 30.7793 82.5775 31.6866L88.9103 49.8338V74.03C88.9103 74.887 88.6213 75.6053 88.0433 76.185C87.4653 76.7647 86.7491 77.0546 85.8947 77.0546H82.879C82.0246 77.0546 81.3084 76.7647 80.7304 76.185C80.1524 75.6053 79.8634 74.887 79.8634 74.03V71.0055H43.6754V74.03C43.6754 74.887 43.3864 75.6053 42.8084 76.185C42.2304 76.7647 41.5142 77.0546 40.6597 77.0546H37.6441ZM43.0723 43.7848H80.4665L77.3 34.7112H46.2387L43.0723 43.7848ZM48.1989 61.9319C49.4554 61.9319 50.5235 61.4909 51.403 60.6087C52.2826 59.7265 52.7224 58.6554 52.7224 57.3951C52.7224 56.1349 52.2826 55.0637 51.403 54.1816C50.5235 53.2994 49.4554 52.8583 48.1989 52.8583C46.9424 52.8583 45.8743 53.2994 44.9948 54.1816C44.1152 55.0637 43.6754 56.1349 43.6754 57.3951C43.6754 58.6554 44.1152 59.7265 44.9948 60.6087C45.8743 61.4909 46.9424 61.9319 48.1989 61.9319ZM75.3399 61.9319C76.5964 61.9319 77.6644 61.4909 78.544 60.6087C79.4236 59.7265 79.8634 58.6554 79.8634 57.3951C79.8634 56.1349 79.4236 55.0637 78.544 54.1816C77.6644 53.2994 76.5964 52.8583 75.3399 52.8583C74.0833 52.8583 73.0153 53.2994 72.1357 54.1816C71.2561 55.0637 70.8164 56.1349 70.8164 57.3951C70.8164 58.6554 71.2561 59.7265 72.1357 60.6087C73.0153 61.4909 74.0833 61.9319 75.3399 61.9319Z" fill="white"/>
<path d="M69.5708 45.1821L71.2911 43.4699L69.5708 45.1821C70.5143 46.13 71.7241 46.6399 73.0687 46.6399H93.122C94.4667 46.6399 95.6765 46.13 96.6199 45.1821C97.563 44.2346 98.0661 43.0245 98.0661 41.684V26.5732C98.0661 25.2327 97.563 24.0226 96.6199 23.0751C95.6765 22.1272 94.4667 21.6173 93.122 21.6173H73.0687C71.7241 21.6173 70.5143 22.1272 69.5708 23.0751C68.6277 24.0226 68.1246 25.2327 68.1246 26.5732V41.684C68.1246 43.0245 68.6277 44.2346 69.5708 45.1821ZM90.6847 31.529V31.6912H75.5061V31.529H90.6847Z" fill="white" stroke="#3C77CF" stroke-width="4.87477"/>
</svg>
