<svg width="131" height="130" viewBox="0 0 131 130" fill="none" xmlns="http://www.w3.org/2000/svg">
<rect x="2.1958" y="1.94189" width="126.116" height="126.116" rx="27.1865" fill="#3C77CF" stroke="white" stroke-width="3.88378"/>
<path d="M32.6856 86.7828H35.088V87.3627C35.088 88.0255 34.9776 88.6675 34.7567 89.2888C34.5496 89.9101 34.232 90.49 33.804 91.0284C33.376 91.5531 32.8513 92.0294 32.23 92.4575C31.6225 92.8717 30.9184 93.2237 30.1176 93.5137C29.3168 93.8036 28.4262 94.0107 27.446 94.135L26.4312 92.0018C27.2872 91.8914 28.0466 91.7257 28.7093 91.5048C29.3858 91.2701 29.9726 91.0008 30.4697 90.6971C30.9667 90.3795 31.3809 90.0413 31.7123 89.6823C32.0436 89.3233 32.2853 88.9436 32.4371 88.5432C32.6028 88.1428 32.6856 87.7493 32.6856 87.3627V86.7828ZM33.4933 86.7828H35.875V87.3627C35.875 87.7493 35.951 88.1428 36.1028 88.5432C36.2685 88.9436 36.517 89.3233 36.8484 89.6823C37.1798 90.0413 37.594 90.3795 38.091 90.6971C38.6019 91.0008 39.1887 91.2701 39.8514 91.5048C40.5141 91.7257 41.2735 91.8914 42.1295 92.0018L41.1147 94.135C40.1344 94.0107 39.2439 93.8036 38.4431 93.5137C37.6423 93.2237 36.9313 92.8717 36.3099 92.4575C35.7024 92.0294 35.1847 91.5531 34.7567 91.0284C34.3425 90.49 34.0249 89.9101 33.804 89.2888C33.5969 88.6675 33.4933 88.0255 33.4933 87.3627V86.7828ZM32.8306 96.8273H35.5851V103.848H32.8306V96.8273ZM25.6027 95.2326H42.9579V97.4486H25.6027V95.2326ZM27.1353 85.6438H41.3632V87.8184H27.1353V85.6438ZM48.838 89.6409H50.9919V90.635C50.9919 91.6428 50.8814 92.6369 50.6605 93.6172C50.4534 94.5975 50.129 95.5226 49.6872 96.3924C49.2591 97.2622 48.7207 98.0354 48.0718 98.712C47.4228 99.3885 46.6566 99.9201 45.7729 100.307L44.3025 98.1735C45.0757 97.8283 45.7453 97.3796 46.3114 96.8273C46.8913 96.2612 47.3676 95.6399 47.7404 94.9634C48.1132 94.2731 48.3893 93.562 48.5688 92.8302C48.7483 92.0847 48.838 91.3529 48.838 90.635V89.6409ZM49.4593 89.6409H51.5718V90.635C51.5718 91.3115 51.6615 92.0018 51.841 92.706C52.0205 93.4101 52.2828 94.0867 52.628 94.7356C52.987 95.3845 53.4357 95.9851 53.9742 96.5374C54.5265 97.0758 55.1754 97.5246 55.9209 97.8835L54.4505 99.9546C53.6083 99.5818 52.8765 99.064 52.2552 98.4013C51.6339 97.7386 51.1162 96.993 50.702 96.1646C50.2878 95.3224 49.9771 94.4318 49.77 93.493C49.5629 92.5403 49.4593 91.5876 49.4593 90.635V89.6409ZM44.9445 87.7769H55.4032V89.9515H44.9445V87.7769ZM48.838 85.1053H51.5925V88.916H48.838V85.1053ZM56.8943 84.6704H59.6695V103.848H56.8943V84.6704ZM59.0689 92.1054H62.4447V94.3835H59.0689V92.1054ZM78.2749 87.4663H82.9969V89.6616H78.2749V87.4663ZM81.775 84.6704H84.5501V94.4042H81.775V84.6704ZM71.8754 95.1912H84.5501V100.369H74.6299V102.771H71.8962V98.3806H81.8164V97.3244H71.8754V95.1912ZM71.8962 101.487H85.0886V103.641H71.8962V101.487ZM72.8695 85.271H75.1062V86.6586C75.1062 87.846 74.913 88.9712 74.5264 90.0344C74.1536 91.0975 73.5737 92.0225 72.7867 92.8095C71.9997 93.5827 70.9918 94.1626 69.763 94.5492L68.3547 92.3953C69.4178 92.064 70.2808 91.6083 70.9435 91.0284C71.6062 90.4348 72.0895 89.7582 72.3932 88.9988C72.7108 88.2395 72.8695 87.4594 72.8695 86.6586V85.271ZM73.4287 85.271H75.6447V86.6586C75.6447 87.2109 75.7276 87.7631 75.8932 88.3154C76.0727 88.8677 76.3351 89.3854 76.6802 89.8687C77.0254 90.3519 77.4672 90.7799 78.0057 91.1527C78.558 91.5255 79.2069 91.8292 79.9524 92.064L78.5442 94.1764C77.3844 93.8036 76.4248 93.2444 75.6654 92.4989C74.906 91.7533 74.34 90.8766 73.9672 89.8687C73.6082 88.8608 73.4287 87.7907 73.4287 86.6586V85.271ZM97.948 89.2888H101.593V91.5255H97.948V89.2888ZM100.827 84.6704H103.602V96.061H100.827V84.6704ZM97.0989 96.4752C98.452 96.4752 99.6187 96.6202 100.599 96.9102C101.579 97.2001 102.332 97.6212 102.856 98.1735C103.395 98.7258 103.664 99.3885 103.664 100.162C103.664 101.349 103.077 102.26 101.904 102.895C100.73 103.544 99.1285 103.869 97.0989 103.869C95.0693 103.869 93.4677 103.544 92.2941 102.895C91.1206 102.26 90.5338 101.349 90.5338 100.162C90.5338 99.3885 90.7961 98.7258 91.3208 98.1735C91.8592 97.6212 92.6186 97.2001 93.5989 96.9102C94.5792 96.6202 95.7459 96.4752 97.0989 96.4752ZM97.0989 98.567C96.2705 98.567 95.5733 98.6291 95.0072 98.7534C94.4411 98.8638 94.0062 99.0364 93.7024 99.2711C93.4125 99.5058 93.2675 99.8027 93.2675 100.162C93.2675 100.521 93.4125 100.824 93.7024 101.073C94.0062 101.308 94.4411 101.487 95.0072 101.611C95.5733 101.722 96.2705 101.777 97.0989 101.777C97.9273 101.777 98.6246 101.722 99.1907 101.611C99.7567 101.487 100.185 101.308 100.475 101.073C100.765 100.824 100.91 100.521 100.91 100.162C100.91 99.8027 100.765 99.5058 100.475 99.2711C100.185 99.0364 99.7567 98.8638 99.1907 98.7534C98.6246 98.6291 97.9273 98.567 97.0989 98.567ZM91.9835 86.5757H94.2202V87.7976C94.2202 89.0126 94.0269 90.1724 93.6403 91.277C93.2537 92.3815 92.66 93.3549 91.8592 94.1971C91.0722 95.0255 90.0643 95.6468 88.8355 96.061L87.4479 93.8865C88.2349 93.6241 88.9115 93.2721 89.4775 92.8302C90.0574 92.3884 90.5269 91.8983 90.8858 91.3598C91.2586 90.8075 91.5348 90.2276 91.7143 89.6201C91.8937 89.0126 91.9835 88.4051 91.9835 87.7976V86.5757ZM92.5634 86.5757H94.7587V87.7769C94.7587 88.5363 94.9105 89.2819 95.2143 90.0136C95.518 90.7454 95.9875 91.4081 96.6226 92.0018C97.2715 92.5955 98.0999 93.065 99.1078 93.4101L97.7617 95.564C96.5743 95.1636 95.594 94.5768 94.8208 93.8036C94.0614 93.0166 93.4953 92.1054 93.1226 91.0699C92.7498 90.0205 92.5634 88.9229 92.5634 87.7769V86.5757ZM88.1935 85.8302H98.5072V88.0047H88.1935V85.8302Z" fill="white"/>
<path d="M73.9703 79.0046L73.4927 75.1638C73.234 75.0638 72.9902 74.9438 72.7614 74.8038C72.5325 74.6637 72.3086 74.5137 72.0897 74.3537L68.5375 75.854L65.2539 70.1529L68.3285 67.8124C68.3086 67.6724 68.2987 67.5374 68.2987 67.4074V66.5972C68.2987 66.4672 68.3086 66.3322 68.3285 66.1921L65.2539 63.8517L68.5375 58.1506L72.0897 59.6509C72.3086 59.4909 72.5375 59.3408 72.7763 59.2008C73.0151 59.0608 73.2539 58.9407 73.4927 58.8407L73.9703 55H80.5375L81.0151 58.8407C81.2738 58.9407 81.5176 59.0608 81.7464 59.2008C81.9753 59.3408 82.1992 59.4909 82.4181 59.6509L85.9703 58.1506L89.2539 63.8517L86.1793 66.1921C86.1992 66.3322 86.2091 66.4672 86.2091 66.5972V67.4074C86.2091 67.5374 86.1892 67.6724 86.1494 67.8124L89.2241 70.1529L85.9405 75.854L82.4181 74.3537C82.1992 74.5137 81.9703 74.6637 81.7315 74.8038C81.4927 74.9438 81.2539 75.0638 81.0151 75.1638L80.5375 79.0046H73.9703ZM77.3136 71.2031C78.4678 71.2031 79.4529 70.793 80.2688 69.9728C81.0848 69.1527 81.4927 68.1625 81.4927 67.0023C81.4927 65.8421 81.0848 64.8519 80.2688 64.0317C79.4529 63.2116 78.4678 62.8015 77.3136 62.8015C76.1395 62.8015 75.1494 63.2116 74.3435 64.0317C73.5375 64.8519 73.1345 65.8421 73.1345 67.0023C73.1345 68.1625 73.5375 69.1527 74.3435 69.9728C75.1494 70.793 76.1395 71.2031 77.3136 71.2031Z" fill="white"/>
<path d="M41.2539 71V21H60.6385C65.2539 21 69.177 22.6204 72.4078 25.8611C75.6385 29.1019 77.2539 33.037 77.2539 37.6667C77.2539 42.2963 75.6385 46.2315 72.4078 49.4722C69.177 52.713 65.2539 54.3333 60.6385 54.3333H52.3308V71H41.2539ZM52.3308 43.2222H61.1924C62.7154 43.2222 64.0193 42.6782 65.1039 41.5903C66.1885 40.5023 66.7308 39.1944 66.7308 37.6667C66.7308 36.1389 66.1885 34.831 65.1039 33.7431C64.0193 32.6551 62.7154 32.1111 61.1924 32.1111H52.3308V43.2222Z" fill="white"/>
</svg>
