<svg width="131" height="130" viewBox="0 0 131 130" fill="none" xmlns="http://www.w3.org/2000/svg">
<rect x="2.7915" y="1.94189" width="126.116" height="126.116" rx="27.1865" fill="#3C77CF" stroke="white" stroke-width="3.88378"/>
<path d="M26.5691 87.2839H30.2141V89.5206H26.5691V87.2839ZM29.4478 82.6655H32.223V94.0562H29.4478V82.6655ZM25.72 94.4704C27.073 94.4704 28.2397 94.6153 29.22 94.9053C30.2003 95.1952 30.9528 95.6163 31.4774 96.1686C32.0159 96.7209 32.2851 97.3836 32.2851 98.1568C32.2851 99.3442 31.6983 100.255 30.5247 100.891C29.3512 101.539 27.7496 101.864 25.72 101.864C23.6904 101.864 22.0888 101.539 20.9152 100.891C19.7416 100.255 19.1548 99.3442 19.1548 98.1568C19.1548 97.3836 19.4171 96.7209 19.9418 96.1686C20.4803 95.6163 21.2396 95.1952 22.2199 94.9053C23.2002 94.6153 24.3669 94.4704 25.72 94.4704ZM25.72 96.5621C24.8916 96.5621 24.1943 96.6242 23.6282 96.7485C23.0621 96.8589 22.6272 97.0315 22.3235 97.2662C22.0335 97.501 21.8886 97.7978 21.8886 98.1568C21.8886 98.5158 22.0335 98.8195 22.3235 99.068C22.6272 99.3028 23.0621 99.4822 23.6282 99.6065C24.1943 99.717 24.8916 99.7722 25.72 99.7722C26.5484 99.7722 27.2456 99.717 27.8117 99.6065C28.3778 99.4822 28.8058 99.3028 29.0957 99.068C29.3857 98.8195 29.5306 98.5158 29.5306 98.1568C29.5306 97.7978 29.3857 97.501 29.0957 97.2662C28.8058 97.0315 28.3778 96.8589 27.8117 96.7485C27.2456 96.6242 26.5484 96.5621 25.72 96.5621ZM20.6045 84.5709H22.8412V85.7928C22.8412 87.0078 22.6479 88.1675 22.2613 89.2721C21.8748 90.3766 21.2811 91.35 20.4803 92.1922C19.6933 93.0206 18.6854 93.642 17.4566 94.0562L16.069 91.8816C16.856 91.6192 17.5325 91.2672 18.0986 90.8254C18.6785 90.3835 19.1479 89.8934 19.5069 89.3549C19.8797 88.8027 20.1558 88.2228 20.3353 87.6153C20.5148 87.0078 20.6045 86.4003 20.6045 85.7928V84.5709ZM21.1844 84.5709H23.3797V85.7721C23.3797 86.5314 23.5316 87.277 23.8353 88.0088C24.1391 88.7405 24.6085 89.4033 25.2436 89.9969C25.8925 90.5906 26.721 91.0601 27.7289 91.4052L26.3827 93.5591C25.1953 93.1587 24.215 92.5719 23.4418 91.7987C22.6825 91.0117 22.1164 90.1005 21.7436 89.065C21.3708 88.0157 21.1844 86.918 21.1844 85.7721V84.5709ZM16.8145 83.8253H27.1283V85.9999H16.8145V83.8253ZM48.4375 82.6448H51.192V101.823H48.4375V82.6448ZM42.7836 84.633H45.4966C45.4966 86.0965 45.3517 87.4979 45.0617 88.8372C44.7856 90.1626 44.3162 91.4121 43.6534 92.5857C43.0045 93.7593 42.1071 94.85 40.9611 95.8579C39.8289 96.852 38.4137 97.7633 36.7155 98.5917L35.2658 96.4171C37.1159 95.5197 38.5863 94.5325 39.6771 93.4556C40.7816 92.3648 41.5755 91.136 42.0587 89.7691C42.542 88.3884 42.7836 86.8421 42.7836 85.13V84.633ZM36.3013 84.633H44.0676V86.8283H36.3013V84.633ZM59.1638 91.5916H61.9183V95.9201H59.1638V91.5916ZM67.7793 82.6448H70.5544V97.0799H67.7793V82.6448ZM56.7407 99.2959H70.9894V101.512H56.7407V99.2959ZM56.7407 95.6508H59.4952V99.855H56.7407V95.6508ZM54.4626 92.0887L54.1312 89.8934C55.3048 89.8934 56.5888 89.8796 57.9833 89.852C59.3778 89.8244 60.7999 89.7691 62.2496 89.6863C63.7131 89.5896 65.1214 89.4516 66.4745 89.2721L66.6402 91.2188C65.2595 91.4536 63.8512 91.6331 62.4153 91.7573C60.9794 91.8816 59.5849 91.9644 58.2318 92.0058C56.8788 92.0473 55.6223 92.0749 54.4626 92.0887ZM64.0928 92.8964H68.4006V95.0088H64.0928V92.8964ZM55.8916 83.5975H64.01V85.7928H55.8916V83.5975ZM62.291 83.5975H65.0248V84.2809C65.0248 84.8332 65.0041 85.6202 64.9627 86.6419C64.9212 87.6636 64.7763 88.8855 64.5278 90.3076L61.8147 90.1419C62.0632 88.7198 62.2013 87.5255 62.2289 86.559C62.2703 85.5788 62.291 84.8194 62.291 84.2809V83.5975ZM78.9704 84.0531H87.1717V86.2484H78.9704V84.0531ZM81.3314 88.5265H84.0444V93.3106H81.3314V88.5265ZM86.0947 84.0531H88.8078V85.2543C88.8078 85.9308 88.7871 86.7385 88.7456 87.6774C88.718 88.6025 88.5869 89.6725 88.3522 90.8875L85.6805 90.5768C85.8876 89.4033 86.005 88.3884 86.0326 87.5324C86.074 86.6764 86.0947 85.917 86.0947 85.2543V84.0531ZM90.651 82.6448H93.4262V96.997H90.651V82.6448ZM92.3285 88.5058H95.725V90.7632H92.3285V88.5058ZM80.6272 99.2959H94.0475V101.512H80.6272V99.2959ZM80.6272 95.7337H83.4024V99.9793H80.6272V95.7337ZM78.0799 94.4497L77.8313 92.2544C78.9359 92.2544 80.1578 92.2475 81.4971 92.2337C82.8363 92.206 84.2032 92.1508 85.5977 92.068C86.9922 91.9713 88.3314 91.8333 89.6155 91.6538L89.8019 93.6212C88.4764 93.856 87.1233 94.0354 85.7427 94.1597C84.362 94.2702 83.0158 94.3461 81.7042 94.3875C80.3925 94.4151 79.1844 94.4358 78.0799 94.4497ZM110.366 82.6241H113.141V101.864H110.366V82.6241ZM98.2086 95.1538H99.9069C101.039 95.1538 102.109 95.14 103.117 95.1124C104.125 95.071 105.112 95.0088 106.079 94.926C107.045 94.8293 108.032 94.6913 109.04 94.5118L109.33 96.7278C107.784 97.0039 106.258 97.1903 104.753 97.287C103.262 97.3698 101.647 97.4112 99.9069 97.4112H98.2086V95.1538ZM98.1672 84.2602H107.218V91.6952H101.005V96.0029H98.2086V89.5206H104.422V86.4762H98.1672V84.2602Z" fill="white"/>
<path d="M37.4937 76.9999C36.6393 76.9999 35.923 76.71 35.345 76.1303C34.767 75.5506 34.478 74.8323 34.478 73.9754V49.7791L40.8109 31.632C41.1125 30.7246 41.6528 29.9937 42.4318 29.4392C43.2109 28.8847 44.0779 28.6074 45.0328 28.6074H78.2051C79.1601 28.6074 80.0271 28.8847 80.8061 29.4392C81.5852 29.9937 82.1255 30.7246 82.4271 31.632L88.76 49.7791V73.9754C88.76 74.8323 88.4709 75.5506 87.8929 76.1303C87.3149 76.71 86.5987 76.9999 85.7443 76.9999H82.7286C81.8742 76.9999 81.158 76.71 80.58 76.1303C80.002 75.5506 79.713 74.8323 79.713 73.9754V70.9508H43.525V73.9754C43.525 74.8323 43.236 75.5506 42.658 76.1303C42.08 76.71 41.3638 76.9999 40.5094 76.9999H37.4937ZM42.9219 43.7301H80.3161L77.1497 34.6565H46.0883L42.9219 43.7301ZM48.0485 61.8772C49.305 61.8772 50.3731 61.4362 51.2526 60.554C52.1322 59.6719 52.572 58.6007 52.572 57.3404C52.572 56.0802 52.1322 55.009 51.2526 54.1269C50.3731 53.2447 49.305 52.8037 48.0485 52.8037C46.792 52.8037 45.7239 53.2447 44.8444 54.1269C43.9648 55.009 43.525 56.0802 43.525 57.3404C43.525 58.6007 43.9648 59.6719 44.8444 60.554C45.7239 61.4362 46.792 61.8772 48.0485 61.8772ZM75.1895 61.8772C76.446 61.8772 77.514 61.4362 78.3936 60.554C79.2732 59.6719 79.713 58.6007 79.713 57.3404C79.713 56.0802 79.2732 55.009 78.3936 54.1269C77.514 53.2447 76.446 52.8037 75.1895 52.8037C73.9329 52.8037 72.8649 53.2447 71.9853 54.1269C71.1058 55.009 70.666 56.0802 70.666 57.3404C70.666 58.6007 71.1058 59.6719 71.9853 60.554C72.8649 61.4362 73.9329 61.8772 75.1895 61.8772Z" fill="white"/>
<path d="M69.4204 45.1274C70.3639 46.0753 71.5737 46.5852 72.9183 46.5852H92.9716C94.3163 46.5852 95.5261 46.0753 96.4695 45.1274C97.4126 44.1799 97.9157 42.9698 97.9157 41.6293V26.5185C97.9157 25.178 97.4126 23.9679 96.4695 23.0204C95.5261 22.0725 94.3163 21.5626 92.9716 21.5626H72.9183C71.5737 21.5626 70.3639 22.0725 69.4204 23.0204C68.4773 23.9679 67.9742 25.178 67.9742 26.5185V41.6293C67.9742 42.9698 68.4773 44.1799 69.4204 45.1274ZM90.5343 31.4743V31.6365H75.3557V31.4743H90.5343Z" fill="white" stroke="#3C77CF" stroke-width="4.87477"/>
</svg>
