<svg width="130" height="130" viewBox="0 0 130 130" fill="none" xmlns="http://www.w3.org/2000/svg">
<rect x="1.94189" y="1.94189" width="126.116" height="126.116" rx="27.1865" fill="#3C77CF" stroke="white" stroke-width="3.88378"/>
<path d="M31.5325 93.6892H33.7071V95.8431C33.7071 96.9062 33.5897 97.9693 33.355 99.0325C33.1341 100.096 32.8027 101.097 32.3609 102.035C31.9191 102.961 31.3599 103.789 30.6834 104.521C30.0207 105.252 29.2475 105.825 28.3638 106.24L26.8106 104.065C27.6114 103.692 28.3017 103.202 28.8816 102.595C29.4753 101.987 29.9654 101.311 30.352 100.565C30.7524 99.8194 31.0493 99.0463 31.2426 98.2455C31.4359 97.4309 31.5325 96.6301 31.5325 95.8431V93.6892ZM32.1124 93.6892H34.287V95.8431C34.287 96.561 34.3836 97.2997 34.5769 98.0591C34.7702 98.8185 35.0532 99.5502 35.426 100.254C35.8126 100.959 36.2959 101.601 36.8758 102.18C37.4694 102.746 38.1598 103.209 38.9468 103.568L37.4142 105.763C36.5306 105.349 35.7574 104.797 35.0947 104.106C34.4457 103.402 33.8935 102.608 33.4378 101.725C32.996 100.827 32.6647 99.8816 32.4438 98.8875C32.2228 97.8796 32.1124 96.8648 32.1124 95.8431V93.6892ZM27.5561 92.488H38.0977V94.7661H27.5561V92.488ZM39.4852 90.6655H42.2604V109.843H39.4852V90.6655ZM41.6598 97.9762H45.0356V100.234H41.6598V97.9762ZM46.318 99.6745H63.6525V101.849H46.318V99.6745ZM53.608 96.7957H56.3625V100.524H53.608V96.7957ZM48.4097 95.9259H61.685V98.0798H48.4097V95.9259ZM48.4097 91.4732H61.5815V93.6478H51.1435V97.2928H48.4097V91.4732ZM54.9128 102.802C56.9838 102.802 58.613 103.112 59.8004 103.734C60.9878 104.341 61.5815 105.211 61.5815 106.343C61.5815 107.462 60.9878 108.324 59.8004 108.932C58.613 109.553 56.9838 109.864 54.9128 109.864C52.8417 109.864 51.2125 109.553 50.0251 108.932C48.8516 108.324 48.2648 107.462 48.2648 106.343C48.2648 105.211 48.8516 104.341 50.0251 103.734C51.2125 103.112 52.8417 102.802 54.9128 102.802ZM54.9128 104.893C54.0567 104.893 53.3388 104.949 52.7589 105.059C52.1928 105.156 51.7648 105.315 51.4749 105.535C51.1849 105.743 51.0399 106.005 51.0399 106.322C51.0399 106.654 51.1849 106.93 51.4749 107.151C51.7648 107.358 52.1928 107.517 52.7589 107.627C53.3388 107.724 54.0567 107.772 54.9128 107.772C55.7688 107.772 56.4798 107.724 57.0459 107.627C57.6258 107.517 58.0607 107.358 58.3507 107.151C58.6406 106.93 58.7856 106.654 58.7856 106.322C58.7856 106.005 58.6406 105.743 58.3507 105.535C58.0607 105.315 57.6258 105.156 57.0459 105.059C56.4798 104.949 55.7688 104.893 54.9128 104.893ZM78.6244 90.6448H81.3996V100.275H78.6244V90.6448ZM72.2456 91.3697H75.2486C75.2486 93.0679 74.9173 94.5452 74.2545 95.8017C73.6056 97.0443 72.6322 98.0729 71.3344 98.8875C70.0365 99.6883 68.4211 100.303 66.4882 100.731L65.5562 98.5147C67.1716 98.1971 68.4626 97.7622 69.429 97.21C70.4093 96.6439 71.1204 95.995 71.5622 95.2632C72.0178 94.5176 72.2456 93.7237 72.2456 92.8815V91.3697ZM66.6746 91.3697H73.3847V93.5649H66.6746V91.3697ZM74.5031 93.0472H78.9765V95.1389H74.5031V93.0472ZM74.3788 96.775H78.8936V98.8461H74.3788V96.775ZM68.7249 100.979H81.3996V106.281H71.5001V108.642H68.7456V104.231H78.6244V103.133H68.7249V100.979ZM68.7456 107.482H81.7724V109.657H68.7456V107.482ZM98.2354 90.6448H100.866V109.823H98.2354V90.6448ZM91.9188 97.21H95.1081V99.4467H91.9188V97.21ZM94.3626 90.9555H96.9307V108.953H94.3626V90.9555ZM87.7974 93.7721H89.8685V95.7395C89.8685 96.8165 89.7856 97.8796 89.6199 98.9289C89.4681 99.9782 89.2264 100.972 88.8951 101.911C88.5637 102.836 88.1288 103.672 87.5903 104.417C87.0519 105.163 86.4029 105.777 85.6436 106.26L84.0074 104.231C84.9463 103.637 85.6919 102.891 86.2442 101.994C86.7964 101.083 87.1899 100.089 87.4246 99.0117C87.6732 97.921 87.7974 96.8303 87.7974 95.7395V93.7721ZM88.4187 93.7721H90.469V95.7395C90.469 96.8027 90.5864 97.852 90.8211 98.8875C91.0558 99.923 91.4424 100.869 91.9809 101.725C92.5194 102.567 93.2511 103.257 94.1762 103.796L92.5815 105.784C91.5598 105.177 90.7452 104.355 90.1377 103.319C89.5302 102.284 89.0884 101.117 88.8122 99.8194C88.5499 98.5078 88.4187 97.1478 88.4187 95.7395V93.7721ZM84.7116 92.5709H93.2649V94.7869H84.7116V92.5709Z" fill="white"/>
<mask id="mask0_433_1970" style="mask-type:alpha" maskUnits="userSpaceOnUse" x="30" y="17" width="69" height="68">
<rect x="30.5698" y="17" width="68" height="67.9999" fill="#D9D9D9"/>
</mask>
<g mask="url(#mask0_433_1970)">
<path d="M86.3155 75.7812L88.2988 73.7979L82.9863 68.4854V60.5521H80.153V69.6187L86.3155 75.7812ZM81.6405 83.2187C77.6738 83.2187 74.3092 81.8493 71.5467 79.1104C68.7842 76.3715 67.403 73.0187 67.403 69.0521C67.403 65.0854 68.7842 61.7326 71.5467 58.9937C74.3092 56.2548 77.6738 54.8854 81.6405 54.8854C85.5599 54.8854 88.8891 56.2667 91.628 59.0291C94.3669 61.7916 95.7363 65.1326 95.7363 69.0521C95.7363 72.9715 94.3669 76.3125 91.628 79.075C88.8891 81.8375 85.5599 83.2187 81.6405 83.2187ZM41.903 77.5521C40.3447 77.5521 39.0106 76.9972 37.9009 75.8875C36.7912 74.7777 36.2363 73.4437 36.2363 71.8854V37.8854C36.2363 36.3271 36.7912 34.9931 37.9009 33.8833C39.0106 32.7736 40.3447 32.2188 41.903 32.2188H87.2363C88.7947 32.2188 90.1287 32.7736 91.2384 33.8833C92.3481 34.9931 92.903 36.3271 92.903 37.8854V52.9729C92.053 52.359 91.1558 51.816 90.2113 51.3437C89.2669 50.8715 88.2752 50.4701 87.2363 50.1396V43.5521H41.903V54.8854H67.403C65.5613 56.6798 64.1092 58.793 63.0467 61.225C61.9842 63.6569 61.453 66.2659 61.453 69.0521C61.453 70.5632 61.6183 72.0389 61.9488 73.4791C62.2794 74.9194 62.7516 76.2771 63.3655 77.5521H41.903Z" fill="white"/>
</g>
</svg>
