<svg width="131" height="130" viewBox="0 0 131 130" fill="none" xmlns="http://www.w3.org/2000/svg">
<rect x="2.86767" y="1.94189" width="126.116" height="126.116" rx="27.1865" fill="#3C77CF" stroke="white" stroke-width="3.88378"/>
<path d="M32.7896 86.6892H34.9849V88.8431C34.9849 89.9476 34.8676 91.0315 34.6329 92.0946C34.412 93.1577 34.0737 94.1587 33.6181 95.0976C33.1762 96.0226 32.6171 96.8441 31.9405 97.5621C31.264 98.2662 30.477 98.8254 29.5796 99.2396L28.0056 97.0651C28.8064 96.6923 29.5036 96.209 30.0973 95.6153C30.7048 95.0216 31.2019 94.3589 31.5885 93.6271C31.9889 92.8816 32.2857 92.1015 32.479 91.2869C32.6861 90.4585 32.7896 89.6439 32.7896 88.8431V86.6892ZM33.3902 86.6892H35.5648V88.8431C35.5648 89.6025 35.6615 90.3756 35.8548 91.1626C36.0619 91.9358 36.3587 92.6745 36.7453 93.3786C37.1319 94.069 37.622 94.6903 38.2157 95.2425C38.8094 95.7948 39.5136 96.2366 40.3282 96.568L38.8163 98.7633C37.9051 98.3629 37.1112 97.8244 36.4347 97.1479C35.7581 96.4714 35.192 95.6913 34.7364 94.8076C34.2808 93.924 33.9425 92.9782 33.7216 91.9703C33.5007 90.9486 33.3902 89.9062 33.3902 88.8431V86.6892ZM28.7719 85.488H39.5412V87.7661H28.7719V85.488ZM41.3223 83.6655H44.0767V102.843H41.3223V83.6655ZM49.2527 92.1981H62.7351V94.4141H49.2527V92.1981ZM47.2231 98.4319H64.599V100.689H47.2231V98.4319ZM54.5131 93.2129H57.2468V99.1568H54.5131V93.2129ZM49.2527 84.9703H62.5901V87.1655H51.9864V93.1508H49.2527V84.9703ZM73.2543 84.7424H76.1537C76.1537 86.4269 75.8085 87.9318 75.1182 89.2573C74.4416 90.5827 73.4545 91.7149 72.1566 92.6538C70.8726 93.5788 69.2917 94.3037 67.414 94.8283L66.3577 92.6745C67.8903 92.2603 69.1674 91.7287 70.1891 91.0798C71.2108 90.4171 71.9771 89.6646 72.488 88.8224C72.9988 87.9663 73.2543 87.0413 73.2543 86.0472V84.7424ZM67.3933 84.7424H75.1803V86.9377H67.3933V84.7424ZM79.5502 83.6448H82.3254V94.3727H79.5502V83.6448ZM76.2572 88.2011H79.9437V90.4378H76.2572V88.2011ZM69.6714 95.1597H82.3254V102.636H69.6714V95.1597ZM79.6123 97.3136H72.3844V100.462H79.6123V97.3136ZM88.7646 84.7424H90.9185V86.9584C90.9185 88.0492 90.7666 89.1123 90.4629 90.1478C90.1591 91.1833 89.6828 92.1084 89.0339 92.923C88.3987 93.7376 87.5565 94.3727 86.5072 94.8283L85.0575 92.6952C85.9411 92.2948 86.6522 91.7839 87.1906 91.1626C87.7429 90.5413 88.1433 89.8648 88.3918 89.133C88.6404 88.4013 88.7646 87.6764 88.7646 86.9584V84.7424ZM89.2824 84.7424H91.4363V86.9584C91.4363 87.6626 91.5536 88.3529 91.7883 89.0295C92.023 89.6922 92.4027 90.2997 92.9274 90.852C93.452 91.4042 94.1355 91.8599 94.9777 92.2188L93.528 94.3106C92.5339 93.8964 91.7193 93.3165 91.0842 92.5709C90.4629 91.8115 90.0072 90.9555 89.7173 90.0029C89.4274 89.0364 89.2824 88.0216 89.2824 86.9584V84.7424ZM99.0369 83.6655H101.667V95.3047H99.0369V83.6655ZM96.7588 88.3253H99.8032V90.5413H96.7588V88.3253ZM94.9984 83.9555H97.5665V95.2011H94.9984V83.9555ZM88.4747 96.1331H101.667V102.843H98.9127V98.3284H88.4747V96.1331Z" fill="white"/>
<path d="M70.1646 73.0359L52.5452 67.1984L38.8902 72.2019C37.9113 72.5726 37.0059 72.4683 36.1738 71.8892C35.3418 71.3101 34.9258 70.5341 34.9258 69.5612V30.6444C34.9258 30.0421 35.1093 29.5093 35.4764 29.046C35.8435 28.5827 36.3451 28.2352 36.9814 28.0036L52.5452 23L70.1646 28.8375L83.8197 23.8339C84.7985 23.4633 85.704 23.5675 86.536 24.1467C87.368 24.7258 87.784 25.5018 87.784 26.4747V65.3915C87.784 65.9938 87.6005 66.5266 87.2334 66.9899C86.8664 67.4532 86.3647 67.8006 85.7284 68.0323L70.1646 73.0359ZM67.2281 66.2254V33.7021L55.4818 29.8104V62.3338L67.2281 66.2254ZM73.1012 66.2254L81.9109 63.4457V30.5054L73.1012 33.7021V66.2254ZM40.7989 65.5305L49.6086 62.3338V29.8104L40.7989 32.5902V65.5305Z" fill="white"/>
<path d="M92.4199 79.0974L93.5212 80.2025L94.6226 79.0974L97.0272 76.6845L98.1211 75.5869L97.0272 74.4893L87.1228 64.5512C87.5526 63.8471 87.9113 63.0888 88.2007 62.28C88.6652 60.9814 88.8927 59.6112 88.8927 58.18C88.8927 54.648 87.6562 51.6004 85.1971 49.133C82.7379 46.6653 79.6981 45.4227 76.1733 45.4227C72.6485 45.4227 69.6087 46.6653 67.1495 49.133C64.6904 51.6004 63.4539 54.648 63.4539 58.18C63.4539 61.712 64.6904 64.7596 67.1495 67.2271C69.6087 69.6947 72.6485 70.9374 76.1733 70.9374C77.6014 70.9374 78.9687 70.7088 80.2643 70.2422C81.068 69.9527 81.8214 69.5942 82.5212 69.165L92.4199 79.0974ZM80.5469 62.5759C79.3385 63.7885 77.9109 64.3807 76.1733 64.3807C74.4356 64.3807 73.0081 63.7885 71.7997 62.5759C70.5911 61.3632 69.9989 59.9284 69.9989 58.18C69.9989 56.4317 70.5911 54.9968 71.7997 53.7841C73.0081 52.5716 74.4356 51.9793 76.1733 51.9793C77.9109 51.9793 79.3385 52.5716 80.5469 53.7841C81.7555 54.9968 82.3477 56.4317 82.3477 58.18C82.3477 59.9284 81.7555 61.3632 80.5469 62.5759Z" fill="white" stroke="#3C77CF" stroke-width="3.10976"/>
</svg>
